<?xml version="1.0" encoding="UTF-8" standalone="no"?>
<!-- Created with Inkscape (http://www.inkscape.org/) -->

<svg
   xmlns:dc="http://purl.org/dc/elements/1.1/"
   xmlns:cc="http://creativecommons.org/ns#"
   xmlns:rdf="http://www.w3.org/1999/02/22-rdf-syntax-ns#"
   xmlns:svg="http://www.w3.org/2000/svg"
   xmlns="http://www.w3.org/2000/svg"
   xmlns:sodipodi="http://sodipodi.sourceforge.net/DTD/sodipodi-0.dtd"
   xmlns:inkscape="http://www.inkscape.org/namespaces/inkscape"
   width="102.46988"
   height="93.516762"
   id="svg2"
   version="1.1"
   inkscape:version="0.91 r13725"
   sodipodi:docname="convergence_attainment.svg">
  <defs
     id="defs4">
    <marker
       inkscape:stockid="Arrow2Mend"
       orient="auto"
       refY="0"
       refX="0"
       id="Arrow2Mend"
       style="overflow:visible">
      <path
         id="path3802"
         style="fill-rule:evenodd;stroke-width:0.625;stroke-linejoin:round"
         d="M 8.7185878,4.0337352 -2.2072895,0.01601326 8.7185884,-4.0017078 c -1.7454984,2.3720609 -1.7354408,5.6174519 -6e-7,8.035443 z"
         transform="scale(-0.6,-0.6)"
         inkscape:connector-curvature="0" />
    </marker>
    <marker
       inkscape:stockid="Arrow1Lend"
       orient="auto"
       refY="0"
       refX="0"
       id="Arrow1Lend"
       style="overflow:visible">
      <path
         id="path3778"
         d="M 0,0 5,-5 -12.5,0 5,5 0,0 z"
         style="fill-rule:evenodd;stroke:#000000;stroke-width:1pt"
         transform="matrix(-0.8,0,0,-0.8,-10,0)"
         inkscape:connector-curvature="0" />
    </marker>
  </defs>
  <sodipodi:namedview
     id="base"
     pagecolor="#ffffff"
     bordercolor="#666666"
     borderopacity="1.0"
     inkscape:pageopacity="0.0"
     inkscape:pageshadow="2"
     inkscape:zoom="5.6"
     inkscape:cx="21.463669"
     inkscape:cy="58.740788"
     inkscape:document-units="px"
     inkscape:current-layer="g4464"
     showgrid="false"
     inkscape:snap-center="false"
     inkscape:snap-object-midpoints="false"
     inkscape:window-width="1920"
     inkscape:window-height="1058"
     inkscape:window-x="1912"
     inkscape:window-y="-8"
     inkscape:window-maximized="1"
     fit-margin-top="0"
     fit-margin-left="0"
     fit-margin-right="0"
     fit-margin-bottom="0"
     inkscape:snap-others="true"
     inkscape:snap-global="false"
     inkscape:snap-nodes="true"
     inkscape:snap-bbox="true"
     inkscape:bbox-nodes="true">
    <inkscape:grid
       type="xygrid"
       id="grid2985"
       empspacing="5"
       visible="true"
       enabled="true"
       snapvisiblegridlinesonly="true"
       originx="-188.85449px"
       originy="-827.80761px" />
  </sodipodi:namedview>
  <metadata
     id="metadata7">
    <rdf:RDF>
      <cc:Work
         rdf:about="">
        <dc:format>image/svg+xml</dc:format>
        <dc:type
           rdf:resource="http://purl.org/dc/dcmitype/StillImage" />
        <dc:title></dc:title>
      </cc:Work>
    </rdf:RDF>
  </metadata>
  <g
     inkscape:label="Layer 1"
     inkscape:groupmode="layer"
     id="layer1"
     transform="translate(-188.85449,-131.03781)">
    <g
       id="g4468"
       transform="matrix(0.89707637,-0.44187552,0.44187552,0.89707637,-72.669631,110.01433)">
      <path
         sodipodi:nodetypes="cccc"
         inkscape:connector-curvature="0"
         id="path4778-3-6"
         d="m 223.06445,185.93978 c 0,0 1.67831,-3.13533 2.89623,-7.54938 0.9497,-4.0872 1.1137,-5.94585 1.33305,-7.73942 l 2.66628,1.27425"
         style="color:#000000;display:inline;overflow:visible;visibility:visible;fill:#00ff00;stroke:none;stroke-width:0.5;marker:none;enable-background:accumulate" />
      <path
         sodipodi:nodetypes="cscsc"
         inkscape:connector-curvature="0"
         id="path4778-4"
         d="m 223.01726,185.91681 c 0,0 1.7255,-3.11236 2.94342,-7.52641 1.21793,-4.41405 0.74514,-7.71933 2.30842,-10.82181 1.56329,-3.10251 4.71957,-5.38804 7.15683,-8.46204 2.43728,-3.07399 4.15553,-6.93646 4.15553,-6.93646"
         style="color:#000000;display:inline;overflow:visible;visibility:visible;fill:none;stroke:#000000;stroke-width:0.25;stroke-linecap:butt;stroke-linejoin:miter;stroke-miterlimit:4;stroke-dasharray:none;stroke-dashoffset:0;stroke-opacity:1;marker:none;enable-background:accumulate" />
    </g>
    <g
       id="g4472"
       transform="matrix(0.89292251,0.45021039,-0.45021039,0.89292251,117.59288,-70.998956)">
      <path
         sodipodi:nodetypes="csccc"
         inkscape:connector-curvature="0"
         id="path4778-3-74"
         d="m 209.76625,179.01548 c 0,0 0.37993,-2.80288 -1.44197,-6.35374 -1.82188,-3.55082 -5.84558,-5.73171 -5.76788,-8.47162 0.0194,-0.68496 0.72099,-2.11791 0.72099,-2.11791 0,0 2.88394,0 6.48886,0"
         style="color:#000000;display:inline;overflow:visible;visibility:visible;fill:#00ff00;stroke:none;stroke-width:0.5;marker:none;enable-background:accumulate" />
      <path
         sodipodi:nodetypes="cscsc"
         inkscape:connector-curvature="0"
         id="path4778-8"
         d="m 209.76624,179.01548 c 0,0 0.37993,-2.80288 -1.44197,-6.35374 -1.82187,-3.55082 -5.84557,-5.73171 -5.76787,-8.47162 0.0777,-2.7399 3.98483,-5.45027 5.76787,-8.47164 1.78304,-3.02135 1.44197,-6.35373 1.44197,-6.35373"
         style="color:#000000;display:inline;overflow:visible;visibility:visible;fill:none;stroke:#000000;stroke-width:0.25;stroke-linecap:butt;stroke-linejoin:miter;stroke-miterlimit:4;stroke-dasharray:none;stroke-dashoffset:0;stroke-opacity:1;marker:none;enable-background:accumulate" />
    </g>
    <g
       id="g4464"
       transform="matrix(0.88797658,0.45988868,-0.45988868,0.88797658,123.98775,-73.48291)">
      <path
         sodipodi:nodetypes="cccc"
         inkscape:connector-curvature="0"
         id="path4778-3-7"
         d="m 247.65647,193.42963 c 0,0 0.72764,-2.13047 -0.22751,-5.34858 -0.56801,-2.4893 -1.69634,-6.13141 -4.16229,-12.67484 l 8.41716,15.85881"
         style="color:#000000;display:inline;overflow:visible;visibility:visible;fill:#00ff00;stroke:none;stroke-width:0.5;marker:none;enable-background:accumulate" />
      <path
         sodipodi:nodetypes="cscsc"
         inkscape:connector-curvature="0"
         id="path4778-2"
         d="m 247.23153,193.28573 c 0,0 1.57873,0.52301 0.19741,-5.2047 -1.38128,-5.72766 -6.49406,-17.30469 -5.38197,-17.60829 1.11209,-0.30359 7.8354,10.02323 11.55361,14.39777 3.71824,4.37458 4.43132,2.79682 4.43132,2.79682"
         style="color:#000000;display:inline;overflow:visible;visibility:visible;fill:none;stroke:#000000;stroke-width:0.25;stroke-linecap:butt;stroke-linejoin:miter;stroke-miterlimit:4;stroke-dasharray:none;stroke-dashoffset:0;stroke-opacity:1;marker:none;enable-background:accumulate" />
    </g>
    <g
       id="g4476"
       transform="matrix(0.89370792,-0.44864925,0.44864925,0.89370792,-82.239219,121.5655)">
      <path
         sodipodi:nodetypes="cscscc"
         inkscape:connector-curvature="0"
         id="path4778-3"
         d="m 254.0473,212.08372 c 0,0 2.03882,0.52874 4.6217,-2.00678 2.58288,-2.53549 4.16927,-8.13522 6.16226,-8.02709 0.24913,0.0136 1.82786,1.26993 2.67909,2.59655 1.09889,1.71259 2.7148,4.45924 2.7148,4.45924 l 0.0121,3.33674"
         style="color:#000000;display:inline;overflow:visible;visibility:visible;fill:#00ff00;stroke:none;stroke-width:0.5;marker:none;enable-background:accumulate" />
      <path
         sodipodi:nodetypes="cscsc"
         inkscape:connector-curvature="0"
         id="path4778"
         d="m 254.0473,212.08371 c 0,0 2.03882,0.52874 4.6217,-2.00678 2.58288,-2.53549 4.16927,-8.13522 6.16226,-8.02709 1.99301,0.10814 3.96453,5.54566 6.16227,8.02709 2.19774,2.48145 4.6217,2.00678 4.6217,2.00678"
         style="color:#000000;display:inline;overflow:visible;visibility:visible;fill:none;stroke:#000000;stroke-width:0.25;stroke-linecap:butt;stroke-linejoin:miter;stroke-miterlimit:4;stroke-dasharray:none;stroke-dashoffset:0;stroke-opacity:1;marker:none;enable-background:accumulate" />
    </g>
    <path
       style="color:#000000;fill:none;stroke:#000000;stroke-width:1px;stroke-linecap:butt;stroke-linejoin:miter;stroke-miterlimit:4;stroke-opacity:1;stroke-dasharray:none;stroke-dashoffset:0;marker:none;marker-end:url(#Arrow2Mend);visibility:visible;display:inline;overflow:visible;enable-background:accumulate"
       d="m 210,217.36218 0,-85"
       id="path2991"
       inkscape:connector-curvature="0" />
    <path
       style="color:#000000;display:inline;overflow:visible;visibility:visible;fill:none;stroke:#000000;stroke-width:0.99250811px;stroke-linecap:butt;stroke-linejoin:miter;stroke-miterlimit:4;stroke-dasharray:none;stroke-dashoffset:0;stroke-opacity:1;marker:none;marker-end:url(#Arrow2Mend);enable-background:accumulate"
       d="m 205,212.36218 83.73117,0"
       id="path2993"
       inkscape:connector-curvature="0" />
    <text
       xml:space="preserve"
       style="font-size:6px;font-style:normal;font-weight:normal;text-align:end;line-height:125%;letter-spacing:0px;word-spacing:0px;text-anchor:end;fill:#000000;fill-opacity:1;stroke:none;font-family:Sans"
       x="285"
       y="223.36218"
       id="text4524"
       sodipodi:linespacing="125%"><tspan
         sodipodi:role="line"
         id="tspan4526"
         x="285"
         y="223.36218">$z_1$</tspan></text>
    <text
       xml:space="preserve"
       style="font-size:6px;font-style:normal;font-weight:normal;text-align:end;line-height:125%;letter-spacing:0px;word-spacing:0px;text-anchor:end;fill:#000000;fill-opacity:1;stroke:none;font-family:Sans"
       x="205"
       y="142.36218"
       id="text4528"
       sodipodi:linespacing="125%"><tspan
         sodipodi:role="line"
         id="tspan4530"
         x="205"
         y="142.36218">$z_2$</tspan></text>
    <path
       style="fill:none;fill-rule:evenodd;stroke:#000000;stroke-width:0.5;stroke-linecap:butt;stroke-linejoin:miter;stroke-opacity:1;stroke-miterlimit:4;stroke-dasharray:0.5,0.5;stroke-dashoffset:0"
       d="m 210,212.36218 35,-70"
       id="path3584"
       inkscape:connector-curvature="0" />
    <path
       style="fill:none;fill-rule:evenodd;stroke:#000000;stroke-width:0.5;stroke-linecap:butt;stroke-linejoin:miter;stroke-opacity:1;stroke-miterlimit:4;stroke-dasharray:0.5,0.5;stroke-dashoffset:0"
       d="m 280,177.36218 -70,35"
       id="path3586"
       inkscape:connector-curvature="0" />
    <path
       style="fill:none;stroke:#000000;stroke-width:0.56530899;stroke-miterlimit:4;stroke-dasharray:none;stroke-dashoffset:0"
       id="path4462"
       sodipodi:type="arc"
       sodipodi:cx="209.97015"
       sodipodi:cy="212.39203"
       sodipodi:rx="49.747192"
       sodipodi:ry="49.747192"
       sodipodi:start="4.712389"
       sodipodi:end="0"
       d="m 209.97015,162.64484 a 49.747192,49.747192 0 0 1 49.7472,49.74719 l -49.7472,0 z" />
  </g>
</svg>
