<?xml version="1.0" encoding="UTF-8" standalone="no"?>
<!-- Created with Inkscape (http://www.inkscape.org/) -->

<svg
   xmlns:dc="http://purl.org/dc/elements/1.1/"
   xmlns:cc="http://creativecommons.org/ns#"
   xmlns:rdf="http://www.w3.org/1999/02/22-rdf-syntax-ns#"
   xmlns:svg="http://www.w3.org/2000/svg"
   xmlns="http://www.w3.org/2000/svg"
   xmlns:sodipodi="http://sodipodi.sourceforge.net/DTD/sodipodi-0.dtd"
   xmlns:inkscape="http://www.inkscape.org/namespaces/inkscape"
   width="19.480223cm"
   height="7.1333528cm"
   id="svg2"
   version="1.1"
   inkscape:version="0.91 r13725"
   sodipodi:docname="threshold_indicator_decomposition.svg">
  <defs
     id="defs4">
    <marker
       inkscape:stockid="Arrow2Mend"
       orient="auto"
       refY="0"
       refX="0"
       id="Arrow2Mend"
       style="overflow:visible">
      <path
         id="path3802"
         style="fill-rule:evenodd;stroke-width:0.625;stroke-linejoin:round"
         d="M 8.7185878,4.0337352 -2.2072895,0.01601326 8.7185884,-4.0017078 c -1.7454984,2.3720609 -1.7354408,5.6174519 -6e-7,8.035443 z"
         transform="scale(-0.6,-0.6)"
         inkscape:connector-curvature="0" />
    </marker>
    <marker
       inkscape:stockid="Arrow1Lend"
       orient="auto"
       refY="0"
       refX="0"
       id="Arrow1Lend"
       style="overflow:visible">
      <path
         id="path3778"
         d="M 0,0 5,-5 -12.5,0 5,5 0,0 Z"
         style="fill-rule:evenodd;stroke:#000000;stroke-width:1pt"
         transform="matrix(-0.8,0,0,-0.8,-10,0)"
         inkscape:connector-curvature="0" />
    </marker>
    <marker
       inkscape:stockid="Arrow2Mend"
       orient="auto"
       refY="0"
       refX="0"
       id="Arrow2Mend-6"
       style="overflow:visible">
      <path
         id="path3802-1"
         style="fill-rule:evenodd;stroke-width:0.625;stroke-linejoin:round"
         d="M 8.7185878,4.0337352 -2.2072895,0.01601326 8.7185884,-4.0017078 c -1.7454984,2.3720609 -1.7354408,5.6174519 -6e-7,8.035443 z"
         transform="scale(-0.6,-0.6)"
         inkscape:connector-curvature="0" />
    </marker>
    <marker
       inkscape:stockid="Arrow2Mend"
       orient="auto"
       refY="0"
       refX="0"
       id="marker4922"
       style="overflow:visible">
      <path
         id="path4924"
         style="fill-rule:evenodd;stroke-width:0.625;stroke-linejoin:round"
         d="M 8.7185878,4.0337352 -2.2072895,0.01601326 8.7185884,-4.0017078 c -1.7454984,2.3720609 -1.7354408,5.6174519 -6e-7,8.035443 z"
         transform="scale(-0.6,-0.6)"
         inkscape:connector-curvature="0" />
    </marker>
    <marker
       inkscape:stockid="Arrow2Mend"
       orient="auto"
       refY="0"
       refX="0"
       id="Arrow2Mend-1"
       style="overflow:visible">
      <path
         id="path3802-8"
         style="fill-rule:evenodd;stroke-width:0.625;stroke-linejoin:round"
         d="M 8.7185878,4.0337352 -2.2072895,0.01601326 8.7185884,-4.0017078 c -1.7454984,2.3720609 -1.7354408,5.6174519 -6e-7,8.035443 z"
         transform="scale(-0.6,-0.6)"
         inkscape:connector-curvature="0" />
    </marker>
    <marker
       inkscape:stockid="Arrow2Mend"
       orient="auto"
       refY="0"
       refX="0"
       id="marker5148"
       style="overflow:visible">
      <path
         id="path5150"
         style="fill-rule:evenodd;stroke-width:0.625;stroke-linejoin:round"
         d="M 8.7185878,4.0337352 -2.2072895,0.01601326 8.7185884,-4.0017078 c -1.7454984,2.3720609 -1.7354408,5.6174519 -6e-7,8.035443 z"
         transform="scale(-0.6,-0.6)"
         inkscape:connector-curvature="0" />
    </marker>
  </defs>
  <sodipodi:namedview
     id="base"
     pagecolor="#ffffff"
     bordercolor="#666666"
     borderopacity="1.0"
     inkscape:pageopacity="0.0"
     inkscape:pageshadow="2"
     inkscape:zoom="1.4"
     inkscape:cx="322.69644"
     inkscape:cy="108.55434"
     inkscape:document-units="px"
     inkscape:current-layer="layer1"
     showgrid="false"
     inkscape:snap-center="false"
     inkscape:snap-object-midpoints="false"
     inkscape:window-width="1920"
     inkscape:window-height="1058"
     inkscape:window-x="1912"
     inkscape:window-y="-8"
     inkscape:window-maximized="1"
     fit-margin-top="0"
     fit-margin-left="0"
     fit-margin-right="0"
     fit-margin-bottom="0"
     inkscape:snap-others="true"
     inkscape:snap-global="false"
     inkscape:snap-nodes="true"
     inkscape:snap-bbox="true"
     inkscape:bbox-nodes="false"
     units="cm"
     inkscape:snap-bbox-midpoints="true">
    <inkscape:grid
       type="xygrid"
       id="grid2985"
       empspacing="5"
       visible="true"
       enabled="true"
       snapvisiblegridlinesonly="true"
       originx="-202.20627"
       originy="-817.46736" />
  </sodipodi:namedview>
  <metadata
     id="metadata7">
    <rdf:RDF>
      <cc:Work
         rdf:about="">
        <dc:format>image/svg+xml</dc:format>
        <dc:type
           rdf:resource="http://purl.org/dc/dcmitype/StillImage" />
        <dc:title></dc:title>
      </cc:Work>
    </rdf:RDF>
  </metadata>
  <g
     inkscape:label="Layer 1"
     inkscape:groupmode="layer"
     id="layer1"
     transform="translate(-202.20627,17.861789)">
    <path
       style="color:#000000;display:inline;overflow:visible;visibility:visible;fill:#00ff00;stroke:none;stroke-width:0.5;marker:none;enable-background:accumulate"
       d="m 600.0549,116.29717 c 0,0 0.46485,-10.72549 -1.95312,-24.062308 -2.41793,-13.33683 -7.69512,-21.21209 -7.62414,-31.6645 0.009,-1.30658 1.16336,-9.67789 2.39481,-14.24239 1.58974,-5.8925 4.14161,-14.57522 4.14161,-14.57522 l 3.12991,-0.3244"
       id="path4778-3-0-2-2"
       inkscape:connector-curvature="0"
       sodipodi:nodetypes="cscscc" />
    <path
       style="color:#000000;display:inline;overflow:visible;visibility:visible;fill:#00ff00;stroke:none;stroke-width:0.5;marker:none;enable-background:accumulate"
       d="m 646.28335,115.56088 c 0,0 4.25195,-6.29569 4.06486,-16.857339 -0.18705,-10.561634 -7.33119,-20.309783 -3.88554,-26.793708 0.43086,-0.810435 5.19596,-5.002182 8.89414,-6.738538 4.77415,-2.241536 12.19147,-5.353527 12.19147,-5.353527 l 5.82192,2.652015"
       id="path4778-3-0-6"
       inkscape:connector-curvature="0"
       sodipodi:nodetypes="cscscc" />
    <path
       style="color:#000000;display:inline;overflow:visible;visibility:visible;fill:#00ff00;stroke:none;stroke-width:0.5;marker:none;enable-background:accumulate"
       d="m 779.3276,208.02694 c 0,0 8.00612,1.19042 17.96149,-5.00175 9.95538,-6.1921 15.83393,-19.70646 23.6362,-19.52467 0.97531,0.023 7.22414,2.97923 10.63134,6.13287 4.3985,4.07117 10.87978,10.60624 10.87978,10.60624 l 0.24215,8.01539"
       id="path4778-3-0-2"
       inkscape:connector-curvature="0"
       sodipodi:nodetypes="cscscc" />
    <path
       style="color:#000000;display:inline;overflow:visible;visibility:visible;fill:#00ff00;stroke:none;stroke-width:0.5;marker:none;enable-background:accumulate"
       d="m 230.07276,113.37238 c 0,0 0.3361,-9.95961 -2.06378,-22.563569 -2.66895,-11.450217 -4.55488,-16.325505 -6.22147,-21.105731 l 8.26611,-0.09826"
       id="path4778-3-6"
       inkscape:connector-curvature="0"
       sodipodi:nodetypes="cccc" />
    <path
       style="color:#000000;display:inline;overflow:visible;visibility:visible;fill:none;stroke:#000000;stroke-width:1;stroke-linecap:butt;stroke-linejoin:miter;stroke-miterlimit:4;stroke-dasharray:none;stroke-dashoffset:0;stroke-opacity:1;marker:none;enable-background:accumulate"
       d="m 229.92594,113.37307 c 0,0 0.48292,-9.9603 -1.91696,-22.564259 -2.39985,-12.60397 -7.67199,-20.32727 -7.58395,-30.061871 0.088,-9.734689 5.18352,-19.388142 7.5,-30.133327 2.31655,-10.745185 1.85406,-22.5821126 1.85406,-22.5821126"
       id="path4778-4"
       inkscape:connector-curvature="0"
       sodipodi:nodetypes="cscsc" />
    <path
       style="color:#000000;display:inline;overflow:visible;visibility:visible;fill:none;stroke:#000000;stroke-width:2;stroke-linecap:butt;stroke-linejoin:miter;stroke-miterlimit:4;stroke-dasharray:none;stroke-dashoffset:0;stroke-opacity:1;marker:none;marker-end:url(#Arrow2Mend);enable-background:accumulate"
       d="m 231.19604,222.97239 0,-238.185432"
       id="path2991"
       inkscape:connector-curvature="0" />
    <path
       style="color:#000000;display:inline;overflow:visible;visibility:visible;fill:none;stroke:#000000;stroke-width:2;stroke-linecap:butt;stroke-linejoin:miter;stroke-miterlimit:4;stroke-dasharray:none;stroke-dashoffset:0;stroke-opacity:1;marker:none;marker-end:url(#Arrow2Mend);enable-background:accumulate"
       d="m 217.20904,208.9693 302.59257,0"
       id="path2993"
       inkscape:connector-curvature="0" />
    <text
       xml:space="preserve"
       style="font-style:normal;font-weight:normal;font-size:16.79875755px;line-height:125%;font-family:Sans;text-align:end;letter-spacing:0px;word-spacing:0px;text-anchor:end;fill:#000000;fill-opacity:1;stroke:none"
       x="505.43356"
       y="231.33484"
       id="text4524"
       sodipodi:linespacing="125%"
       transform="scale(0.99914762,1.0008531)"><tspan
         sodipodi:role="line"
         id="tspan4526"
         x="505.43356"
         y="231.33484">z<tspan
   style="font-size:10.91919231px;baseline-shift:sub"
   id="tspan4842">1</tspan></tspan></text>
    <text
       xml:space="preserve"
       style="font-style:normal;font-weight:normal;font-size:16.79875755px;line-height:125%;font-family:Sans;text-align:end;letter-spacing:0px;word-spacing:0px;text-anchor:end;fill:#000000;fill-opacity:1;stroke:none"
       x="217.3943"
       y="12.797862"
       id="text4528"
       sodipodi:linespacing="125%"
       transform="scale(0.99914762,1.0008531)"><tspan
         sodipodi:role="line"
         id="tspan4530"
         x="217.3943"
         y="12.797862">z<tspan
   style="font-size:10.91919231px;baseline-shift:sub"
   id="tspan4840">2</tspan></tspan></text>
    <path
       style="fill:none;fill-rule:evenodd;stroke:#000000;stroke-width:2;stroke-linecap:butt;stroke-linejoin:miter;stroke-miterlimit:4;stroke-dasharray:2, 2;stroke-dashoffset:0;stroke-opacity:1"
       d="M 231.19604,208.96148 329.10527,12.808772"
       id="path3584"
       inkscape:connector-curvature="0" />
    <path
       style="fill:none;fill-rule:evenodd;stroke:#000000;stroke-width:2;stroke-linecap:butt;stroke-linejoin:miter;stroke-miterlimit:4;stroke-dasharray:2, 2;stroke-dashoffset:0;stroke-opacity:1"
       d="M 427.01449,110.88513 231.19604,208.96148"
       id="path3586"
       inkscape:connector-curvature="0" />
    <path
       style="fill:none;stroke:#000000;stroke-width:2;stroke-miterlimit:4;stroke-dasharray:none;stroke-dashoffset:0"
       id="path4462"
       sodipodi:type="arc"
       sodipodi:cx="231.11252"
       sodipodi:cy="209.04512"
       sodipodi:rx="212.59503"
       sodipodi:ry="139.40067"
       sodipodi:start="4.712389"
       sodipodi:end="0"
       d="M 231.11252,69.644455 A 212.59503,139.40067 0 0 1 443.70755,209.04512 l -212.59503,0 z" />
    <path
       style="color:#000000;display:inline;overflow:visible;visibility:visible;fill:#00ff00;stroke:none;stroke-width:0.5;marker:none;enable-background:accumulate"
       d="m 359.395,143.64763 c 0,0 5.74365,-1.31644 8.88984,-10.95661 3.14623,-9.64009 -0.13012,-25.61544 4.95777,-27.91888 0.63611,-0.28773 6.17487,0.79935 9.99783,3.00026 4.93523,2.84124 12.48661,7.5871 12.48661,7.5871 l 4.32948,8.28359"
       id="path4778-3"
       inkscape:connector-curvature="0"
       sodipodi:nodetypes="cscscc" />
    <path
       style="color:#000000;display:inline;overflow:visible;visibility:visible;fill:none;stroke:#000000;stroke-width:1;stroke-linecap:butt;stroke-linejoin:miter;stroke-miterlimit:4;stroke-dasharray:none;stroke-dashoffset:0;stroke-opacity:1;marker:none;enable-background:accumulate"
       d="m 359.39499,143.6476 c 0,0 5.74364,-1.31644 8.88984,-10.9566 3.14623,-9.64009 -0.13012,-25.61545 4.95777,-27.91889 5.08795,-2.30343 16.98953,8.67622 25.64384,12.01144 8.65434,3.33526 14.06138,-0.97399 14.06138,-0.97399"
       id="path4778"
       inkscape:connector-curvature="0"
       sodipodi:nodetypes="cscsc" />
    <path
       style="color:#000000;display:inline;overflow:visible;visibility:visible;fill:#00ff00;stroke:none;stroke-width:0.5;marker:none;enable-background:accumulate"
       d="m 410.42979,207.80809 c 0,0 11.74004,-1.64667 16.30216,-5.13303 4.62423,-2.61374 9.48396,-6.58246 15.40157,-13.92609 l 1.30658,18.98511"
       id="path4778-3-7"
       inkscape:connector-curvature="0"
       sodipodi:nodetypes="cccc" />
    <path
       style="color:#000000;display:inline;overflow:visible;visibility:visible;fill:none;stroke:#000000;stroke-width:1;stroke-linecap:butt;stroke-linejoin:miter;stroke-miterlimit:4;stroke-dasharray:none;stroke-dashoffset:0;stroke-opacity:1;marker:none;enable-background:accumulate"
       d="m 408.18302,207.46632 c 0,0 8.38565,1.25889 18.54888,-4.79128 10.16331,-6.05012 15.82509,-19.40759 23.96367,-19.15184 8.13855,0.25575 16.9546,13.2225 26.26832,19.1385 9.31379,5.91606 19.12511,4.78132 19.12511,4.78132"
       id="path4778-2"
       inkscape:connector-curvature="0"
       sodipodi:nodetypes="cscsc" />
    <path
       style="color:#000000;display:inline;overflow:visible;visibility:visible;fill:#00ff00;stroke:none;stroke-width:0.5;marker:none;enable-background:accumulate"
       d="m 275.62338,118.11091 c 0,0 4.47902,-6.53386 4.40018,-17.71704 -0.0788,-11.183045 -7.38284,-21.716101 -3.73805,-28.473691 0.91111,-1.689385 4.46827,-4.389707 4.46827,-4.389707 0,0 7.2037,3.638295 16.20831,8.186158"
       id="path4778-3-74"
       inkscape:connector-curvature="0"
       sodipodi:nodetypes="csccc" />
    <path
       style="color:#000000;display:inline;overflow:visible;visibility:visible;fill:none;stroke:#000000;stroke-width:1;stroke-linecap:butt;stroke-linejoin:miter;stroke-miterlimit:4;stroke-dasharray:none;stroke-dashoffset:0;stroke-opacity:1;marker:none;enable-background:accumulate"
       d="m 275.62335,118.1109 c 0,0 4.47902,-6.53386 4.40019,-17.71704 -0.0788,-11.183035 -7.38282,-21.716091 -3.73803,-28.473681 3.64477,-6.757564 16.81776,-8.610142 25.07673,-13.920573 8.25895,-5.310381 11.60388,-14.078717 11.60388,-14.078717"
       id="path4778-8"
       inkscape:connector-curvature="0"
       sodipodi:nodetypes="cscsc" />
    <path
       style="color:#000000;display:inline;overflow:visible;visibility:visible;fill:none;stroke:#000000;stroke-width:1;stroke-linecap:butt;stroke-linejoin:miter;stroke-miterlimit:4;stroke-dasharray:none;stroke-dashoffset:0;stroke-opacity:1;marker:none;enable-background:accumulate"
       d="m 599.92594,113.37307 c 0,0 0.48292,-9.9603 -1.91696,-22.564258 -2.39985,-12.60397 -7.67199,-20.32727 -7.58395,-30.06187 0.088,-9.73469 5.18352,-19.38814 7.5,-30.133329 2.31655,-10.745185 1.85406,-22.582112 1.85406,-22.582112"
       id="path4778-4-0"
       inkscape:connector-curvature="0"
       sodipodi:nodetypes="cscsc" />
    <path
       style="color:#000000;display:inline;overflow:visible;visibility:visible;fill:none;stroke:#000000;stroke-width:2;stroke-linecap:butt;stroke-linejoin:miter;stroke-miterlimit:4;stroke-dasharray:none;stroke-dashoffset:0;stroke-opacity:1;marker:none;marker-end:url(#Arrow2Mend-1);enable-background:accumulate"
       d="m 601.19604,222.97238 0,-238.185422"
       id="path2991-4"
       inkscape:connector-curvature="0" />
    <path
       style="color:#000000;display:inline;overflow:visible;visibility:visible;fill:none;stroke:#000000;stroke-width:2;stroke-linecap:butt;stroke-linejoin:miter;stroke-miterlimit:4;stroke-dasharray:none;stroke-dashoffset:0;stroke-opacity:1;marker:none;marker-end:url(#Arrow2Mend-1);enable-background:accumulate"
       d="m 587.20904,208.96929 302.59256,0"
       id="path2993-6"
       inkscape:connector-curvature="0" />
    <text
       xml:space="preserve"
       style="font-style:normal;font-weight:normal;font-size:16.79875755px;line-height:125%;font-family:Sans;text-align:end;letter-spacing:0px;word-spacing:0px;text-anchor:end;fill:#000000;fill-opacity:1;stroke:none"
       x="871.91516"
       y="231.33484"
       id="text4524-1"
       sodipodi:linespacing="125%"
       transform="scale(0.99914762,1.0008531)"><tspan
         sodipodi:role="line"
         id="tspan4526-9"
         x="871.91516"
         y="231.33484">z<tspan
   style="font-size:10.91919231px;baseline-shift:sub"
   id="tspan4842-4">1</tspan></tspan></text>
    <text
       xml:space="preserve"
       style="font-style:normal;font-weight:normal;font-size:16.79875755px;line-height:125%;font-family:Sans;text-align:end;letter-spacing:0px;word-spacing:0px;text-anchor:end;fill:#000000;fill-opacity:1;stroke:none"
       x="587.70996"
       y="12.797864"
       id="text4528-3"
       sodipodi:linespacing="125%"
       transform="scale(0.99914762,1.0008531)"><tspan
         sodipodi:role="line"
         id="tspan4530-0"
         x="587.70996"
         y="12.797864">z<tspan
   style="font-size:10.91919231px;baseline-shift:sub"
   id="tspan4840-5">2</tspan></tspan></text>
    <path
       style="fill:none;fill-rule:evenodd;stroke:#000000;stroke-width:2;stroke-linecap:butt;stroke-linejoin:miter;stroke-miterlimit:4;stroke-dasharray:2, 2;stroke-dashoffset:0;stroke-opacity:1"
       d="M 601.19604,208.96148 699.10527,12.808772"
       id="path3584-7"
       inkscape:connector-curvature="0" />
    <path
       style="fill:none;fill-rule:evenodd;stroke:#000000;stroke-width:2;stroke-linecap:butt;stroke-linejoin:miter;stroke-miterlimit:4;stroke-dasharray:2, 2;stroke-dashoffset:0;stroke-opacity:1"
       d="M 797.01449,110.88513 601.19604,208.96148"
       id="path3586-8"
       inkscape:connector-curvature="0" />
    <path
       style="color:#000000;display:inline;overflow:visible;visibility:visible;fill:#00ff00;stroke:none;stroke-width:0.5;marker:none;enable-background:accumulate"
       d="m 729.395,143.64763 c 0,0 5.74365,-1.31644 8.88984,-10.95661 3.14623,-9.6401 -0.13012,-25.61544 4.95777,-27.91888 0.63611,-0.28773 6.17487,0.79935 9.99783,3.00026 4.93523,2.84124 12.48661,7.5871 12.48661,7.5871 l 4.32948,8.28358"
       id="path4778-3-0"
       inkscape:connector-curvature="0"
       sodipodi:nodetypes="cscscc" />
    <path
       style="color:#000000;display:inline;overflow:visible;visibility:visible;fill:none;stroke:#000000;stroke-width:1;stroke-linecap:butt;stroke-linejoin:miter;stroke-miterlimit:4;stroke-dasharray:none;stroke-dashoffset:0;stroke-opacity:1;marker:none;enable-background:accumulate"
       d="m 729.39499,143.6476 c 0,0 5.74364,-1.31644 8.88984,-10.95661 3.14623,-9.64009 -0.13012,-25.61544 4.95777,-27.91888 5.08795,-2.30343 16.98953,8.67622 25.64384,12.01144 8.65434,3.33525 14.06138,-0.97399 14.06138,-0.97399"
       id="path4778-9"
       inkscape:connector-curvature="0"
       sodipodi:nodetypes="cscsc" />
    <path
       style="color:#000000;display:inline;overflow:visible;visibility:visible;fill:none;stroke:#000000;stroke-width:1;stroke-linecap:butt;stroke-linejoin:miter;stroke-miterlimit:4;stroke-dasharray:none;stroke-dashoffset:0;stroke-opacity:1;marker:none;enable-background:accumulate"
       d="m 778.18302,207.46632 c 0,0 8.38565,1.25889 18.54888,-4.79128 10.16331,-6.05012 15.82509,-19.40759 23.96367,-19.15184 8.13855,0.25575 16.9546,13.2225 26.26833,19.1385 9.3138,5.91605 19.1251,4.78131 19.1251,4.78131"
       id="path4778-2-9"
       inkscape:connector-curvature="0"
       sodipodi:nodetypes="cscsc" />
    <path
       style="color:#000000;display:inline;overflow:visible;visibility:visible;fill:none;stroke:#000000;stroke-width:1;stroke-linecap:butt;stroke-linejoin:miter;stroke-miterlimit:4;stroke-dasharray:none;stroke-dashoffset:0;stroke-opacity:1;marker:none;enable-background:accumulate"
       d="m 645.62335,118.1109 c 0,0 4.47902,-6.53386 4.40019,-17.71704 -0.0788,-11.183038 -7.38282,-21.716088 -3.73803,-28.473678 3.64477,-6.75757 16.81776,-8.61015 25.07673,-13.92058 8.25895,-5.31038 11.60388,-14.07871 11.60388,-14.07871"
       id="path4778-8-0"
       inkscape:connector-curvature="0"
       sodipodi:nodetypes="cscsc" />
    <circle
       style="fill:#000000;fill-opacity:1;stroke:none;stroke-width:1;stroke-miterlimit:4;stroke-dasharray:none;stroke-dashoffset:0;stroke-opacity:1"
       id="path5289"
       cx="673.2124"
       cy="64.860306"
       r="5.426712" />
    <circle
       style="fill:#000000;fill-opacity:1;stroke:none;stroke-width:1;stroke-miterlimit:4;stroke-dasharray:none;stroke-dashoffset:0;stroke-opacity:1"
       id="path5289-5"
       cx="770.06342"
       cy="124.89481"
       r="5.426712" />
    <circle
       style="fill:#000000;fill-opacity:1;stroke:none;stroke-width:1;stroke-miterlimit:4;stroke-dasharray:none;stroke-dashoffset:0;stroke-opacity:1"
       id="path5289-0"
       cx="842.92053"
       cy="208.46623"
       r="5.426712" />
    <circle
       style="fill:#000000;fill-opacity:1;stroke:none;stroke-width:1;stroke-miterlimit:4;stroke-dasharray:none;stroke-dashoffset:0;stroke-opacity:1"
       id="path5289-7"
       cx="601.492"
       cy="34.180519"
       r="5.426712" />
  </g>
</svg>
